<?xml version="1.0" encoding="UTF-8" standalone="no"?>
<!-- Created with Inkscape (http://www.inkscape.org/) -->

<svg
   width="1080"
   height="1080"
   viewBox="0 0 285.74999 285.75"
   version="1.1"
   id="svg1"
   sodipodi:docname="Logo.svg"
   inkscape:version="1.3.2 (091e20e, 2023-11-25, custom)"
   inkscape:export-filename="LogoWeb.png"
   inkscape:export-xdpi="96"
   inkscape:export-ydpi="96"
   xmlns:inkscape="http://www.inkscape.org/namespaces/inkscape"
   xmlns:sodipodi="http://sodipodi.sourceforge.net/DTD/sodipodi-0.dtd"
   xmlns="http://www.w3.org/2000/svg"
   xmlns:svg="http://www.w3.org/2000/svg">
  <sodipodi:namedview
     id="namedview1"
     pagecolor="#000000"
     bordercolor="#000000"
     borderopacity="0.25"
     inkscape:showpageshadow="2"
     inkscape:pageopacity="0.0"
     inkscape:pagecheckerboard="0"
     inkscape:deskcolor="#d1d1d1"
     inkscape:document-units="mm"
     inkscape:export-bgcolor="#ffffff00"
     inkscape:zoom="0.83936194"
     inkscape:cx="565.31036"
     inkscape:cy="478.33954"
     inkscape:window-width="1600"
     inkscape:window-height="837"
     inkscape:window-x="-8"
     inkscape:window-y="-8"
     inkscape:window-maximized="1"
     inkscape:current-layer="layer1" />
  <defs
     id="defs1" />
  <g
     inkscape:label="Layer 1"
     inkscape:groupmode="layer"
     id="layer1">
    <path
       id="rect1-0"
       style="fill:#ffffff;stroke-width:0.2413;stroke:none;fill-opacity:1"
       d="M 115.04414 110.93896 C 111.88378 110.93896 109.33958 113.48316 109.33958 116.64353 L 109.33958 174.53508 C 109.33958 177.69544 111.88378 180.23964 115.04414 180.23964 L 172.51298 180.23964 C 175.67335 180.23964 178.21755 177.69544 178.21755 174.53508 L 178.21755 116.64353 C 178.21755 113.48316 175.67335 110.93896 172.51298 110.93896 L 115.04414 110.93896 z M 118.22379 123.0266 L 137.11928 123.0266 L 144.5364 148.96042 L 145.61954 148.96042 L 153.03717 123.0266 L 171.93266 123.0266 L 171.93266 168.50599 L 157.63896 168.50599 L 157.63896 148.3651 L 156.44781 148.3651 L 150.65489 168.50599 L 139.50156 168.50599 L 133.70812 148.3651 L 132.51698 148.3651 L 132.51698 168.50599 L 118.22379 168.50599 L 118.22379 123.0266 z " />
    <path
       id="rect1-0-5"
       style="fill:#ffffff;stroke:none;stroke-width:0.2413;fill-opacity:1"
       d="M 36.056714 111.28571 C 32.896352 111.28571 30.352153 113.82991 30.352153 116.99028 L 30.352153 174.88183 C 30.352153 178.04219 32.896352 180.58639 36.056714 180.58639 L 93.525557 180.58639 C 96.685919 180.58639 99.230119 178.04219 99.230119 174.88183 L 99.230119 116.99028 C 99.230119 113.82991 96.685919 111.28571 93.525557 111.28571 L 36.056714 111.28571 z M 64.910767 122.13001 C 77.958995 122.13001 87.055077 125.75765 86.784367 138.75174 L 73.411023 138.75174 C 72.869603 135.71978 70.325293 133.82491 64.586239 133.82491 C 59.605172 133.82491 57.547392 135.34093 57.547392 137.39833 C 57.547392 138.69774 58.35956 140.26756 61.82465 140.80898 L 66.643477 141.62133 C 75.685196 143.13731 88.083512 143.4081 88.083512 155.86077 C 88.083512 165.76876 80.395667 170.69541 64.802763 170.64126 C 49.101575 170.58712 41.684071 165.7145 42.063066 153.91154 L 55.544413 153.91154 C 55.706839 156.99763 58.30572 158.89275 64.802763 158.94689 C 70.541818 159.00103 73.194499 157.37648 73.194499 155.26494 C 73.194499 153.80311 72.382269 152.28748 67.942623 151.63777 L 62.095435 150.7169 C 53.486852 149.30921 43.145687 148.28077 43.145687 136.64024 C 43.145687 127.65266 50.454845 122.13001 64.910767 122.13001 z " />
    <path
       id="rect1-0-0"
       style="fill:#ffffff;stroke:none;stroke-width:0.2413;fill-opacity:1"
       d="M 194.4858 110.85215 C 191.32544 110.85215 188.78124 113.39635 188.78124 116.55671 L 188.78124 174.44827 C 188.78124 177.60863 191.32544 180.15283 194.4858 180.15283 L 251.95465 180.15283 C 255.11501 180.15283 257.65972 177.60863 257.65972 174.44827 L 257.65972 116.55671 C 257.65972 113.39635 255.11501 110.85215 251.95465 110.85215 L 194.4858 110.85215 z M 201.07713 121.92021 L 218.29417 121.92021 L 233.39971 146.50062 L 234.75363 146.50062 L 234.75363 121.92021 L 249.37186 121.92021 L 249.37186 167.3996 L 232.53361 167.3996 L 217.04877 142.81919 L 215.69536 142.81919 L 215.69536 167.3996 L 201.07713 167.3996 L 201.07713 121.92021 z " />
  </g>
</svg>
